<svg width="48" height="48" viewBox="0 0 48 48" fill="none" xmlns="http://www.w3.org/2000/svg">
<circle cx="24" cy="24" r="23" fill="white"/>
<path d="M23.9938 0C10.7638 0 0 10.7653 0 23.9972C0 37.2292 10.7638 47.9944 23.9938 47.9944C37.2239 47.9944 47.9877 37.2292 47.9877 23.9972C47.9877 10.7653 37.2239 0 23.9938 0ZM24.2246 11.0756C25.8672 11.0756 27.473 11.5628 28.8389 12.4756C30.2047 13.3883 31.2693 14.6857 31.8979 16.2035C32.5265 17.7214 32.691 19.3916 32.3705 21.0029C32.0501 22.6143 31.259 24.0944 30.0975 25.2561C28.9359 26.4178 27.456 27.209 25.8449 27.5295C24.2338 27.85 22.5638 27.6855 21.0462 27.0568C19.5285 26.4281 18.2314 25.3634 17.3187 23.9973C16.4061 22.6313 15.919 21.0253 15.919 19.3824C15.919 17.1793 16.794 15.0664 18.3516 13.5086C19.9092 11.9508 22.0218 11.0756 24.2246 11.0756ZM23.9938 44.3026C21.1936 44.3037 18.4235 43.724 15.8586 42.6C13.2937 41.4761 10.9897 39.8323 9.09228 37.7725C10.112 32.4909 19.2712 31.381 23.9938 31.381C28.7165 31.381 37.8757 32.4909 38.8954 37.7714C36.9982 39.8315 34.6943 41.4756 32.1294 42.5998C29.5645 43.724 26.7943 44.3038 23.9938 44.3026Z" fill="#393C42"/>
</svg>
