<svg width="18" height="18" viewBox="0 0 18 18" fill="none" xmlns="http://www.w3.org/2000/svg">
<path d="M16.2219 4.05376L10.2562 0.586961C9.87449 0.36568 9.44106 0.249146 8.9998 0.249146C8.55855 0.249146 8.12512 0.36568 7.74336 0.586961L1.77813 4.05376C1.75463 4.06754 1.73515 4.08723 1.72161 4.11087C1.70807 4.13451 1.70095 4.16128 1.70095 4.18852C1.70095 4.21577 1.70807 4.24253 1.72161 4.26617C1.73515 4.28981 1.75463 4.3095 1.77813 4.32329L8.92187 8.52563C8.9459 8.53979 8.97328 8.54725 9.00117 8.54725C9.02906 8.54725 9.05644 8.53979 9.08047 8.52563L16.2227 4.32329C16.2461 4.30944 16.2655 4.28969 16.279 4.26601C16.2925 4.24233 16.2995 4.21554 16.2994 4.1883C16.2994 4.16106 16.2922 4.13431 16.2786 4.11071C16.265 4.08711 16.2454 4.06748 16.2219 4.05376ZM9 4.93774C8.48242 4.93774 8.0625 4.65806 8.0625 4.31274C8.0625 3.96743 8.48242 3.68774 9 3.68774C9.51758 3.68774 9.9375 3.96743 9.9375 4.31274C9.9375 4.65806 9.51758 4.93774 9 4.93774ZM8.29687 9.57876L1.10937 5.38618C1.08563 5.37247 1.0587 5.36525 1.03129 5.36525C1.00388 5.36524 0.976943 5.37245 0.953194 5.38614C0.929446 5.39984 0.909719 5.41954 0.895993 5.44327C0.882268 5.467 0.875028 5.49392 0.875 5.52134V12.3151C0.87559 12.6424 0.961863 12.9639 1.12524 13.2475C1.28862 13.5312 1.5234 13.7671 1.80625 13.9319L8.14062 17.7299C8.16437 17.7436 8.1913 17.7509 8.21871 17.7509C8.24612 17.7509 8.27306 17.7437 8.29681 17.73C8.32055 17.7163 8.34028 17.6966 8.35401 17.6728C8.36773 17.6491 8.37497 17.6222 8.375 17.5948V9.71391C8.37497 9.68651 8.36774 9.6596 8.35403 9.63588C8.34031 9.61216 8.3206 9.59246 8.29687 9.57876ZM2.75 13.3752C2.40469 13.3752 2.125 12.9553 2.125 12.4377C2.125 11.9202 2.40469 11.5002 2.75 11.5002C3.09531 11.5002 3.375 11.9202 3.375 12.4377C3.375 12.9553 3.09531 13.3752 2.75 13.3752ZM6.5 12.1252C6.15469 12.1252 5.875 11.7053 5.875 11.1877C5.875 10.6702 6.15469 10.2502 6.5 10.2502C6.84531 10.2502 7.125 10.6702 7.125 11.1877C7.125 11.7053 6.84531 12.1252 6.5 12.1252ZM16.8906 5.38735L9.70312 9.60806C9.67945 9.62172 9.65978 9.64136 9.64607 9.66501C9.63236 9.68866 9.6251 9.71549 9.625 9.74282V17.594C9.62503 17.6214 9.63227 17.6483 9.64599 17.6721C9.65972 17.6958 9.67945 17.7155 9.70319 17.7292C9.72694 17.7429 9.75388 17.7501 9.78129 17.7501C9.8087 17.7501 9.83563 17.7429 9.85937 17.7291L16.1934 13.9311C16.4762 13.7665 16.711 13.5307 16.8744 13.2472C17.0378 12.9637 17.1242 12.6423 17.125 12.3151V5.52368C17.1252 5.49617 17.1181 5.46909 17.1044 5.4452C17.0908 5.42131 17.0711 5.40144 17.0473 5.3876C17.0235 5.37377 16.9965 5.36646 16.969 5.36642C16.9415 5.36637 16.9145 5.37359 16.8906 5.38735ZM11.5 15.5627C11.1547 15.5627 10.875 15.1428 10.875 14.6252C10.875 14.1077 11.1547 13.6877 11.5 13.6877C11.8453 13.6877 12.125 14.1077 12.125 14.6252C12.125 15.1428 11.8453 15.5627 11.5 15.5627ZM11.5 12.1252C11.1547 12.1252 10.875 11.7053 10.875 11.1877C10.875 10.6702 11.1547 10.2502 11.5 10.2502C11.8453 10.2502 12.125 10.6702 12.125 11.1877C12.125 11.7053 11.8453 12.1252 11.5 12.1252ZM15.25 13.3752C14.9047 13.3752 14.625 12.9553 14.625 12.4377C14.625 11.9202 14.9047 11.5002 15.25 11.5002C15.5953 11.5002 15.875 11.9202 15.875 12.4377C15.875 12.9553 15.5953 13.3752 15.25 13.3752ZM15.25 9.93774C14.9047 9.93774 14.625 9.51782 14.625 9.00024C14.625 8.48266 14.9047 8.06274 15.25 8.06274C15.5953 8.06274 15.875 8.48266 15.875 9.00024C15.875 9.51782 15.5953 9.93774 15.25 9.93774Z" fill="white"/>
</svg>
